<?xml version="1.0" encoding="UTF-8" standalone="no"?>
<!DOCTYPE svg PUBLIC "-//W3C//DTD SVG 1.1//EN"
 "http://www.w3.org/Graphics/SVG/1.1/DTD/svg11.dtd">
<!-- Generated by graphviz version 5.0.0 (20220707.1540)
 -->
<!-- Title: UmlClassDiagram Pages: 1 -->
<svg width="501pt" height="422pt"
 viewBox="0.00 0.00 501.06 422.00" xmlns="http://www.w3.org/2000/svg" xmlns:xlink="http://www.w3.org/1999/xlink">
<g id="graph0" class="graph" transform="scale(1 1) rotate(0) translate(4 418)">
<title>UmlClassDiagram</title>
<polygon fill="white" stroke="transparent" points="-4,4 -4,-418 497.06,-418 497.06,4 -4,4"/>
<!-- 1 -->
<g id="node1" class="node">
<title>1</title>
<polygon fill="#f2f2f2" stroke="black" points="170.68,-0.5 170.68,-134.1 322.38,-134.1 322.38,-0.5 170.68,-0.5"/>
<text text-anchor="middle" x="246.53" y="-117.5" font-family="Times,serif" font-size="14.00">&lt;&lt;Struct&gt;&gt;</text>
<text text-anchor="middle" x="246.53" y="-100.7" font-family="Times,serif" font-size="14.00">User</text>
<text text-anchor="middle" x="246.53" y="-83.9" font-family="Times,serif" font-size="14.00">temp.sol</text>
<polyline fill="none" stroke="black" points="170.68,-75.7 322.38,-75.7 "/>
<text text-anchor="start" x="178.68" y="-59.1" font-family="Times,serif" font-size="14.00">userId: uint256</text>
<text text-anchor="start" x="178.68" y="-42.3" font-family="Times,serif" font-size="14.00">username: string</text>
<text text-anchor="start" x="178.68" y="-25.5" font-family="Times,serif" font-size="14.00">password: string</text>
<text text-anchor="start" x="178.68" y="-8.7" font-family="Times,serif" font-size="14.00">mnemonicPhrase: string</text>
</g>
<!-- 0 -->
<g id="node2" class="node">
<title>0</title>
<polygon fill="#f2f2f2" stroke="black" points="0,-171.1 0,-413.5 493.06,-413.5 493.06,-171.1 0,-171.1"/>
<text text-anchor="middle" x="246.53" y="-396.9" font-family="Times,serif" font-size="14.00">Users</text>
<text text-anchor="middle" x="246.53" y="-380.1" font-family="Times,serif" font-size="14.00">temp.sol</text>
<polyline fill="none" stroke="black" points="0,-371.9 493.06,-371.9 "/>
<text text-anchor="start" x="8" y="-355.3" font-family="Times,serif" font-size="14.00">Private:</text>
<text text-anchor="start" x="8" y="-338.5" font-family="Times,serif" font-size="14.00"> &#160;&#160;userCount: uint256</text>
<text text-anchor="start" x="8" y="-321.7" font-family="Times,serif" font-size="14.00">Public:</text>
<text text-anchor="start" x="8" y="-304.9" font-family="Times,serif" font-size="14.00"> &#160;&#160;UserDataBase: mapping(string=&gt;User)</text>
<text text-anchor="start" x="8" y="-288.1" font-family="Times,serif" font-size="14.00"> &#160;&#160;UserExixts: mapping(string=&gt;bool)</text>
<polyline fill="none" stroke="black" points="0,-279.9 493.06,-279.9 "/>
<text text-anchor="start" x="8" y="-263.3" font-family="Times,serif" font-size="14.00">Public:</text>
<text text-anchor="start" x="8" y="-246.5" font-family="Times,serif" font-size="14.00"> &#160;&#160;&#160;addNewUser(username: string, password: string, mnemonicPhrase: string)</text>
<text text-anchor="start" x="8" y="-229.7" font-family="Times,serif" font-size="14.00"> &#160;&#160;&#160;isUserAlreadyRegistered(username: string): bool</text>
<text text-anchor="start" x="8" y="-212.9" font-family="Times,serif" font-size="14.00"> &#160;&#160;&#160;loginRegisteredUser(username: string, password: string): bool</text>
<text text-anchor="start" x="8" y="-196.1" font-family="Times,serif" font-size="14.00"> &#160;&#160;&#160;verifyUserWithMnemonicPhrase(mnemonicPhrase: string, username: string): bool</text>
<text text-anchor="start" x="8" y="-179.3" font-family="Times,serif" font-size="14.00"> &#160;&#160;&#160;resetUserPassword(username: string, newPassword: string): string</text>
</g>
<!-- 1&#45;&gt;0 -->
<g id="edge1" class="edge">
<title>1&#45;&gt;0</title>
<path fill="none" stroke="black" d="M240.31,-134.3C240.12,-142.07 239.98,-150.19 239.89,-158.47"/>
<polygon fill="black" stroke="black" points="239.89,-158.71 243.84,-164.74 239.8,-170.71 235.84,-164.68 239.89,-158.71"/>
</g>
<!-- 0&#45;&gt;1 -->
<g id="edge2" class="edge">
<title>0&#45;&gt;1</title>
<path fill="none" stroke="black" d="M253.26,-170.71C253.22,-161.82 253.12,-153.01 252.97,-144.51"/>
<polygon fill="black" stroke="black" points="256.46,-144.23 252.75,-134.3 249.47,-144.37 256.46,-144.23"/>
</g>
</g>
</svg>
